# xmcd CD database file
# Copyright (C) 1993-1998 Ti Kan
#
# Track frame offsets:
#	150
#	19705
#	37452
#	53745
#	73365
#	89297
#	111070
#	129827
#	152237
#	171072
#	190595
#	210800
#	234080
#	251677
#	273877
#	295440
#	313095
#
# Disc length: 4410 seconds
#
# Revision: 0
# Processed by: cddbd v1.4b41PL1 Copyright (c) Steve Scherf et al.
# Submitted via: CDmax 1.5.3
#
DISCID=ea113811
DTITLE=Mariah Carey - Greatest Hits
DYEAR=1900
DGENRE=
TTITLE0=hero
TTITLE1=dreamlover
TTITLE2=without you
TTITLE3=i'll be there
TTITLE4=vision of love
TTITLE5=i don't wanna cry
TTITLE6=someday
TTITLE7=music box
TTITLE8=emotions
TTITLE9=anytime u need
TTITLE10=can't let go
TTITLE11=make it happen
TTITLE12=if it's over
TTITLE13=there's got to be
TTITLE14=all in your min d
TTITLE15=you need me
TTITLE16=alone in love
EXTD=
EXTT0=
EXTT1=
EXTT2=
EXTT3=
EXTT4=
EXTT5=
EXTT6=
EXTT7=
EXTT8=
EXTT9=
EXTT10=
EXTT11=
EXTT12=
EXTT13=
EXTT14=
EXTT15=
EXTT16=
PLAYORDER=
